<?xml version="1.0" standalone="no"?>
<!DOCTYPE svg PUBLIC "-//W3C//DTD SVG 20010904//EN"
 "http://www.w3.org/TR/2001/REC-SVG-20010904/DTD/svg10.dtd">
<svg version="1.0" xmlns="http://www.w3.org/2000/svg"
 width="512.000000pt" height="512.000000pt" viewBox="0 0 512.000000 512.000000"
 preserveAspectRatio="xMidYMid meet">
<metadata>
Created by potrace 1.11, written by Peter Selinger 2001-2013
</metadata>
<g transform="translate(0.000000,512.000000) scale(0.100000,-0.100000)"
fill="#000000" stroke="none">
<path d="M2435 3641 c-42 -11 -107 -46 -126 -67 -9 -11 -20 -33 -24 -51 -3
-18 -20 -49 -36 -69 -50 -63 -30 -172 48 -255 54 -58 115 -84 198 -83 80 0
129 18 183 68 59 54 82 105 82 185 0 83 -15 132 -58 181 -61 72 -182 113 -267
91z"/>
<path d="M3431 3034 c0 -11 3 -14 6 -6 3 7 2 16 -1 19 -3 4 -6 -2 -5 -13z"/>
<path d="M1670 3020 c0 -27 38 -152 69 -229 68 -164 218 -339 373 -435 143
-88 325 -134 491 -123 255 17 485 144 644 355 86 114 162 280 178 390 4 32 3
30 -14 -16 -34 -91 -113 -212 -196 -300 -126 -134 -255 -211 -441 -264 -103
-29 -321 -31 -427 -5 -305 76 -553 298 -657 587 -10 30 -19 48 -20 40z"/>
<path d="M3520 2113 c0 -246 -52 -370 -167 -402 -104 -29 -203 60 -264 236
-24 70 -49 183 -49 223 0 27 -3 29 -27 25 -16 -2 -84 -12 -153 -20 -122 -16
-623 -94 -625 -98 -1 -1 -7 -62 -14 -135 -14 -156 -38 -242 -86 -304 -37 -49
-120 -98 -164 -98 -91 0 -183 67 -233 167 -32 65 -33 73 -33 181 l0 114 -71
-4 c-184 -12 -305 -141 -369 -393 -48 -187 -52 -447 -9 -554 24 -59 47 -55 83
17 42 83 72 107 130 106 59 -1 126 -36 310 -161 l136 -94 11 38 c53 181 236
337 488 418 157 50 262 65 445 65 185 0 299 -17 447 -65 291 -95 477 -274 493
-475 l6 -75 39 60 c50 74 90 176 111 284 23 111 16 355 -14 482 -75 325 -245
578 -388 579 l-33 0 0 -117z m-1537 -590 c-7 -2 -19 -2 -25 0 -7 3 -2 5 12 5
14 0 19 -2 13 -5z"/>
<path d="M0 8 c0 -5 1152 -8 2560 -8 1408 0 2560 3 2560 8 0 4 -1152 7 -2560
7 -1408 0 -2560 -3 -2560 -7z"/>
</g>
</svg>
